<svg id="Layer_1" data-name="Layer 1" xmlns="http://www.w3.org/2000/svg" viewBox="0 0 117.36 32.28"><defs><style>.cls-1{fill:#db2b55;}.cls-2{fill:#1d1d1b;}</style></defs><path class="cls-1" d="M105.5,248.55c.13-.4.53-1.31,1.18-2.74s1.53-3.33,2.64-5.72,2.42-5.22,3.94-8.5,3.21-7,5.08-11.08a3.68,3.68,0,0,0,.26-.68,2.28,2.28,0,0,0,.1-.64.88.88,0,0,0-.24-.64,1.32,1.32,0,0,0-.92-.24,3.79,3.79,0,0,0-2.74,1,6.1,6.1,0,0,0-1.56,2.5,9.19,9.19,0,0,0-.5,2.92c0,.24,0,.52,0,.84s.07.68.12,1.08a2.2,2.2,0,0,1-1.58-.58,3.61,3.61,0,0,1-.94-1.44,4.42,4.42,0,0,1,.42-4.1,8.8,8.8,0,0,1,1.94-2.18,9.94,9.94,0,0,1,2.66-1.54,8.11,8.11,0,0,1,2.9-.56,4,4,0,0,1,2.52.82,5.46,5.46,0,0,1,1.6,3,25.93,25.93,0,0,1,.56,6.14c0,1.74-.06,3.49-.18,5.26s-.25,3.44-.38,5-.2,2.87-.2,4q.8-2.35,2-5c.79-1.77,1.63-3.53,2.54-5.28s1.8-3.39,2.68-4.94,1.67-2.9,2.38-4.06,1.25-2,1.62-2.58a8.57,8.57,0,0,1,1-1.32,1.62,1.62,0,0,1,1.2-.44,6,6,0,0,1,1.76.44,18,18,0,0,0-.84,2.42c-.32,1.11-.67,2.4-1,3.86s-.8,3.36-1.2,5.26-.76,3.84-1.08,5.78-.58,3.8-.78,5.54a41.28,41.28,0,0,0-.3,4.62,10,10,0,0,0,.1,1.64,5.42,5.42,0,0,0,.28,1.06c.12.31.26.7.42,1.18a5.28,5.28,0,0,1-2.62-.52,2.56,2.56,0,0,1-1.2-1.66,12.23,12.23,0,0,1-.3-3,45.89,45.89,0,0,1,1-9.34q1-4.89,2.38-10.1a41,41,0,0,0-2.32,3.8q-1.2,2.21-2.36,4.64c-.77,1.63-1.51,3.24-2.2,4.82s-1.31,3.06-1.84,4.4-1,2.48-1.24,3.38l-.5.16a1.13,1.13,0,0,1-.34,0c-.93,0-1.53-.56-1.78-1.7a22.55,22.55,0,0,1-.38-4.66c0-1,0-2.15,0-3.34s.07-2.4.12-3.64.09-2.47.12-3.7,0-2.4,0-3.52c0-.4,0-.8,0-1.2s0-.78,0-1.16q-3,7.08-5.14,12.1t-3.58,8.16a21.37,21.37,0,0,1-2.72,4.6A3.45,3.45,0,0,1,105.5,248.55Z" transform="translate(-105.5 -216.27)"/><path class="cls-2" d="M140.18,246.27a3.25,3.25,0,0,1-2.64-1,3.79,3.79,0,0,1-.88-2.52,11.11,11.11,0,0,1,.32-2.32,23.1,23.1,0,0,1,2.24-5.84,10,10,0,0,1,1.64-2.22,2.57,2.57,0,0,1,1.76-.86,1.27,1.27,0,0,1,.84.3,1.06,1.06,0,0,1,.36.86,3.57,3.57,0,0,1-.62,1.56q-.62,1-1.44,2.4a22,22,0,0,0-1.44,2.82,7.2,7.2,0,0,0-.62,2.78,2.29,2.29,0,0,0,.46,1.7,1.92,1.92,0,0,0,1.34.42,4.73,4.73,0,0,0,3-1.36,15.42,15.42,0,0,0,3.32-4.76l.6.64a14.36,14.36,0,0,1-3.56,5.48A6.79,6.79,0,0,1,140.18,246.27Zm4.72-18a2.52,2.52,0,0,1-1.38-.38,1.28,1.28,0,0,1-.62-1.18,2,2,0,0,1,1-1.64,3.9,3.9,0,0,1,2.16-.68,2.24,2.24,0,0,1,1.22.32,1.29,1.29,0,0,1,.5,1.16,2.18,2.18,0,0,1-.92,1.62A3,3,0,0,1,144.9,228.23Z" transform="translate(-105.5 -216.27)"/><path class="cls-2" d="M154.14,246.11a3.57,3.57,0,0,1-2.4-.78,2.62,2.62,0,0,1-.92-2.1,6.12,6.12,0,0,1,.56-2.4q.56-1.28,1.14-2.52a5.23,5.23,0,0,0,.58-2.2,2.14,2.14,0,0,0-.6-1.54,5.31,5.31,0,0,0-1.4-1,43.53,43.53,0,0,1-2,4.26c-.73,1.38-1.33,2.45-1.78,3.22l-.6-1.16c.37-.69.87-1.68,1.48-3a44.47,44.47,0,0,0,1.76-4.28,1.43,1.43,0,0,1-.4-1.08,3.37,3.37,0,0,1,.64-2c.43-.61.84-.92,1.24-.92a.74.74,0,0,1,.7.54,2.39,2.39,0,0,1,.22.74,2.58,2.58,0,0,1-.18.72c-.12.35-.21.6-.26.76s.26.58.7.86l1.5,1a6.33,6.33,0,0,1,1.48,1.4,3.38,3.38,0,0,1,.64,2.12,5.83,5.83,0,0,1-.52,2.36c-.35.8-.69,1.55-1,2.24a4.17,4.17,0,0,0-.52,1.8.79.79,0,0,0,.3.74,1.33,1.33,0,0,0,.7.18,4.06,4.06,0,0,0,2-.58,10.44,10.44,0,0,0,2-1.5,13.84,13.84,0,0,0,1.76-1.94,11.39,11.39,0,0,0,1.16-1.86l1,.72a13.46,13.46,0,0,1-2.2,3.38,13.19,13.19,0,0,1-3.2,2.72A6.8,6.8,0,0,1,154.14,246.11Z" transform="translate(-105.5 -216.27)"/><path class="cls-2" d="M165.9,246.83a5.33,5.33,0,0,1-3.94-1.38,4.69,4.69,0,0,1-1.38-3.46,9.07,9.07,0,0,1,.9-3.74,15.31,15.31,0,0,1,2.42-3.72,13.49,13.49,0,0,1,3.36-2.82,7.22,7.22,0,0,1,3.68-1.08,3.93,3.93,0,0,1,2,.54,2.25,2.25,0,0,1,.94,2.14,5,5,0,0,1-.88,2.84,9,9,0,0,1-2.36,2.36,14,14,0,0,1-3.26,1.7,14.93,14.93,0,0,1-3.58.86,1.86,1.86,0,0,0-.06.34c0,.12,0,.32,0,.58a6.67,6.67,0,0,0,.06.7,3.11,3.11,0,0,0,.34,1.06,2.34,2.34,0,0,0,.92,1,3.28,3.28,0,0,0,1.76.4,6.89,6.89,0,0,0,3.38-.94,13.44,13.44,0,0,0,3.2-2.5,15.08,15.08,0,0,0,2.5-3.48l.8.64a15.13,15.13,0,0,1-2.78,4.2,12.81,12.81,0,0,1-3.76,2.8A9.51,9.51,0,0,1,165.9,246.83Zm-1.68-7.24a7.62,7.62,0,0,0,2.32-.72,12.78,12.78,0,0,0,2.46-1.52,9,9,0,0,0,1.94-2,3.84,3.84,0,0,0,.76-2.22.85.85,0,0,0-.16-.6.75.75,0,0,0-.52-.16,3.52,3.52,0,0,0-1.92.66,10.55,10.55,0,0,0-2,1.72,15,15,0,0,0-1.72,2.34A14.33,14.33,0,0,0,164.22,239.59Z" transform="translate(-105.5 -216.27)"/><path class="cls-2" d="M178.1,246.27a3.25,3.25,0,0,1-2.64-1,3.74,3.74,0,0,1-.88-2.52,11.11,11.11,0,0,1,.32-2.32,23.1,23.1,0,0,1,2.24-5.84,10,10,0,0,1,1.64-2.22,2.57,2.57,0,0,1,1.76-.86,1.27,1.27,0,0,1,.84.3,1.06,1.06,0,0,1,.36.86,3.57,3.57,0,0,1-.62,1.56q-.62,1-1.44,2.4a22,22,0,0,0-1.44,2.82,7.2,7.2,0,0,0-.62,2.78,2.29,2.29,0,0,0,.46,1.7,1.92,1.92,0,0,0,1.34.42,4.73,4.73,0,0,0,3-1.36,15.42,15.42,0,0,0,3.32-4.76l.6.64a14.36,14.36,0,0,1-3.56,5.48A6.79,6.79,0,0,1,178.1,246.27Zm4.72-18a2.52,2.52,0,0,1-1.38-.38,1.28,1.28,0,0,1-.62-1.18,2,2,0,0,1,1-1.64,3.9,3.9,0,0,1,2.16-.68,2.24,2.24,0,0,1,1.22.32,1.29,1.29,0,0,1,.5,1.16,2.18,2.18,0,0,1-.92,1.62A3,3,0,0,1,182.82,228.23Z" transform="translate(-105.5 -216.27)"/><path class="cls-2" d="M188.42,246.27a3.2,3.2,0,0,1-2.78-1.24,5.3,5.3,0,0,1-.9-3.2,17.25,17.25,0,0,1,.72-4.48,48.6,48.6,0,0,1,1.9-5.48c.79-1.92,1.65-3.8,2.6-5.64s1.9-3.51,2.86-5a28.09,28.09,0,0,1,2.66-3.6c.81-.89,1.47-1.34,2-1.34a1,1,0,0,1,.88.54,4.87,4.87,0,0,1,.58,1.3,5.1,5.1,0,0,1,.22,1.44,9.51,9.51,0,0,1-.54,2.74,29.17,29.17,0,0,1-1.52,3.74,42.16,42.16,0,0,1-2.32,4.18,35.93,35.93,0,0,1-3,4.08,22.46,22.46,0,0,1-3.46,3.38q-.17,1-.3,2.1a16.17,16.17,0,0,0-.14,1.9c0,1.84.57,2.76,1.72,2.76a2.94,2.94,0,0,0,1.82-.74,9.41,9.41,0,0,0,1.82-2,18.75,18.75,0,0,0,1.6-2.66,35.89,35.89,0,0,1,1.2-4.4q.8-2.35,1.86-4.74t2.26-4.56q1.2-2.18,2.36-3.88a19.51,19.51,0,0,1,2.14-2.68,2.68,2.68,0,0,1,1.62-1,1.08,1.08,0,0,1,.9.54,4.47,4.47,0,0,1,.6,1.32,5.39,5.39,0,0,1,.22,1.5,10.86,10.86,0,0,1-.68,3.26,29.14,29.14,0,0,1-1.94,4.4,31.92,31.92,0,0,1-3.06,4.7,23.75,23.75,0,0,1-4.08,4.12c-.13.62-.24,1.27-.32,2a16.41,16.41,0,0,0-.12,1.84c0,2,.55,3,1.64,3a3.26,3.26,0,0,0,2.12-.94,11.17,11.17,0,0,0,2-2.42,21,21,0,0,0,1.64-3l1,.52a20.85,20.85,0,0,1-3.66,5.62,5.92,5.92,0,0,1-4.34,2.06,3.15,3.15,0,0,1-2.72-1.2,5.34,5.34,0,0,1-.92-3.12,12.57,12.57,0,0,1-2.9,3.18A5.46,5.46,0,0,1,188.42,246.27Zm.64-10.84a28.61,28.61,0,0,0,2.54-3.1c.81-1.13,1.57-2.28,2.26-3.46s1.3-2.3,1.82-3.4a25.68,25.68,0,0,0,1.22-3,7.15,7.15,0,0,0,.44-2.08v-.32a.17.17,0,0,0-.08-.16c-.19,0-.52.3-1,.9a23.82,23.82,0,0,0-1.66,2.46c-.63,1-1.28,2.22-2,3.54s-1.33,2.72-2,4.2S189.51,234,189.06,235.43Zm9.84,0a28.68,28.68,0,0,0,2.94-3.62,34.41,34.41,0,0,0,2.32-3.84,25.83,25.83,0,0,0,1.52-3.48,8.23,8.23,0,0,0,.54-2.5v-.3a.39.39,0,0,0,0-.18c-.27,0-.69.39-1.26,1.16a28.75,28.75,0,0,0-1.94,3.14q-1.08,2-2.16,4.46A52.71,52.71,0,0,0,198.9,235.47Z" transform="translate(-105.5 -216.27)"/><path class="cls-2" d="M208.9,246.83a5.33,5.33,0,0,1-3.94-1.38,4.69,4.69,0,0,1-1.38-3.46,9.07,9.07,0,0,1,.9-3.74,15.31,15.31,0,0,1,2.42-3.72,13.49,13.49,0,0,1,3.36-2.82,7.22,7.22,0,0,1,3.68-1.08,3.93,3.93,0,0,1,2,.54,2.25,2.25,0,0,1,.94,2.14,5,5,0,0,1-.88,2.84,9,9,0,0,1-2.36,2.36,14,14,0,0,1-3.26,1.7,14.93,14.93,0,0,1-3.58.86,1.86,1.86,0,0,0-.06.34c0,.12,0,.32,0,.58a6.67,6.67,0,0,0,.06.7,3.11,3.11,0,0,0,.34,1.06,2.34,2.34,0,0,0,.92,1,3.28,3.28,0,0,0,1.76.4,6.89,6.89,0,0,0,3.38-.94,13.44,13.44,0,0,0,3.2-2.5,15.08,15.08,0,0,0,2.5-3.48l.8.64a15.13,15.13,0,0,1-2.78,4.2,12.81,12.81,0,0,1-3.76,2.8A9.51,9.51,0,0,1,208.9,246.83Zm-1.68-7.24a7.62,7.62,0,0,0,2.32-.72,12.78,12.78,0,0,0,2.46-1.52,9,9,0,0,0,1.94-2,3.84,3.84,0,0,0,.76-2.22.85.85,0,0,0-.16-.6.75.75,0,0,0-.52-.16,3.52,3.52,0,0,0-1.92.66,10.55,10.55,0,0,0-2,1.72,15,15,0,0,0-1.72,2.34A14.33,14.33,0,0,0,207.22,239.59Z" transform="translate(-105.5 -216.27)"/><path class="cls-2" d="M220.78,245.47a1.63,1.63,0,0,1-1.36-.5,1.59,1.59,0,0,1-.4-1,1.55,1.55,0,0,1,.4-.94,3.58,3.58,0,0,1,1-.84,2.36,2.36,0,0,1,1.12-.34,1.75,1.75,0,0,1,.88.26,1.06,1.06,0,0,1,.44,1,2.51,2.51,0,0,1-.24.9,3,3,0,0,1-.7,1A1.55,1.55,0,0,1,220.78,245.47Z" transform="translate(-105.5 -216.27)"/></svg>